<?xml version="1.0" encoding="utf-8"?>
<!-- Svg Vector Icons : http://www.onlinewebfonts.com/icon -->
<!DOCTYPE svg PUBLIC "-//W3C//DTD SVG 1.1//EN" "http://www.w3.org/Graphics/SVG/1.1/DTD/svg11.dtd">
<svg version="1.1" xmlns="http://www.w3.org/2000/svg" xmlns:xlink="http://www.w3.org/1999/xlink" x="0px" y="0px" viewBox="0 0 1000 1000" enable-background="new 0 0 1000 1000" xml:space="preserve">
<metadata> Svg Vector Icons : http://www.onlinewebfonts.com/icon </metadata>
<g><g transform="translate(0.000000,511.000000) scale(0.100000,-0.100000)"><path d="M4725.1,5002.6c-1260.5-94-2322.8-572-3186.9-1432.1c-384.1-382-676.2-788.5-927.5-1293.1C-594.5-149.6,406.5-3097.4,2843.6-4290.5c471.9-228.8,923.4-371.8,1421.8-449.4c306.4-47,880.5-61.3,1199.2-30.6c1579.2,155.3,2966.3,1041.9,3773.2,2414.7c1021.4,1740.5,847.8,3971.4-429,5546.4c-788.6,970.4-1906,1599.6-3144,1771.2C5434,4992.4,4907,5016.9,4725.1,5002.6z M5338,4013.8c927.5-85.8,1773.2-478,2422.9-1123.6c1571-1564.8,1544.4-4096-59.2-5620c-945.8-900.9-2218.6-1260.4-3519.9-999c-520.9,106.2-1080.7,359.5-1526,692.5C1027.5-1816.6,598.5,451,1669,2175.2C2447.3,3425.5,3885.5,4146.6,5338,4013.8z"/><path d="M5836.5,1517.4c-431.1-441.3-794.7-802.8-806.9-802.8c-14.3,0-384.1,353.4-825.3,786.5l-802.9,786.5l-269.7-286l-269.7-284l523-510.7c925.4-905,1084.8-1062.3,1084.8-1076.6c0-8.2-353.4-375.9-784.5-817.1l-786.5-804.9l275.8-275.8l275.8-275.8l800.8,813.1l800.8,811l804.9-786.5c441.3-433.1,811-786.5,819.2-786.5c20.4,0,531.2,531.2,531.2,549.5c0,8.2-363.6,367.7-806.9,798.8l-804.9,784.5l177.7,183.9c96,102.1,447.4,463.7,780.4,804.9c330.9,339.1,602.6,629.2,602.6,643.5c0,12.3-120.5,143-267.6,286l-267.6,261.5L5836.5,1517.4z"/></g></g>
</svg>